# xmcd CD database file
#
# Track frame offsets:
#	150
#	32382
#	57152
#	82137
#	101695
#	126032
#	155250
#	176667
#	200475
#	224572
#
# Disc length: 3315 seconds
#
# Revision: 8
# Processed by: cddbd v1.5.2PL0 Copyright (c) Steve Scherf et al.
# Submitted via: CDex 1.51
#
DISCID=870cf10a
DTITLE=Rinôçérôse - Installation Sonore
DYEAR=1999
DGENRE=Electro
TTITLE0=La Guitaristic House Organisation
TTITLE1=Radiocapte
TTITLE2=Sublimior
TTITLE3=Le Mobilier
TTITLE4=323 Secondes De Musique Répétitive Avec Guitare Espagnole
TTITLE5=Mes Vacances A Rio
TTITLE6=Popular Mechanics
TTITLE7=I Love Ma Guitare
TTITLE8="Rock Classics" Volume 1
TTITLE9=Le Triangle
EXTD=YEAR: 1999
EXTT0=
EXTT1=
EXTT2=
EXTT3=
EXTT4=
EXTT5=
EXTT6=
EXTT7=
EXTT8=
EXTT9=
PLAYORDER=
